<?xml version="1.0" encoding="UTF-8" standalone="no"?>
<!-- Generator: Adobe Illustrator 16.0.0, SVG Export Plug-In . SVG Version: 6.00 Build 0)  -->

<svg
   xmlns:dc="http://purl.org/dc/elements/1.1/"
   xmlns:cc="http://creativecommons.org/ns#"
   xmlns:rdf="http://www.w3.org/1999/02/22-rdf-syntax-ns#"
   xmlns:svg="http://www.w3.org/2000/svg"
   xmlns="http://www.w3.org/2000/svg"
   xmlns:xlink="http://www.w3.org/1999/xlink"
   xmlns:sodipodi="http://sodipodi.sourceforge.net/DTD/sodipodi-0.dtd"
   xmlns:inkscape="http://www.inkscape.org/namespaces/inkscape"
   version="1.1"
   id="Layer_1"
   x="0px"
   y="0px"
   width="311.876px"
   height="360.951px"
   viewBox="0 0 311.876 360.951"
   enable-background="new 0 0 311.876 360.951"
   xml:space="preserve"
   sodipodi:docname="han chiang shield app icon-01.svg"
   inkscape:version="0.92.4 (5da689c313, 2019-01-14)"><metadata
   id="metadata25"><rdf:RDF><cc:Work
       rdf:about=""><dc:format>image/svg+xml</dc:format><dc:type
         rdf:resource="http://purl.org/dc/dcmitype/StillImage" /></cc:Work></rdf:RDF></metadata><defs
   id="defs23"><linearGradient
     gradientTransform="matrix(3.7795275,0,0,3.7795275,317.45225,-27.889812)"
     inkscape:collect="always"
     xlink:href="#linearGradient879"
     id="linearGradient881"
     x1="-178.21577"
     y1="72.293144"
     x2="-178.02678"
     y2="36.385406"
     gradientUnits="userSpaceOnUse" /><linearGradient
     inkscape:collect="always"
     id="linearGradient879"><stop
       style="stop-color:#87aade;stop-opacity:1;"
       offset="0"
       id="stop875" /><stop
       style="stop-color:#d7e3f4;stop-opacity:1"
       offset="1"
       id="stop877" /></linearGradient><linearGradient
     inkscape:collect="always"
     xlink:href="#linearGradient879"
     id="linearGradient4567"
     gradientUnits="userSpaceOnUse"
     gradientTransform="matrix(3.7795275,0,0,3.7795275,317.45225,279.53031)"
     x1="-178.21577"
     y1="72.293144"
     x2="-178.02678"
     y2="36.385406" /></defs><sodipodi:namedview
   pagecolor="#ffffff"
   bordercolor="#666666"
   borderopacity="1"
   objecttolerance="10"
   gridtolerance="10"
   guidetolerance="10"
   inkscape:pageopacity="0"
   inkscape:pageshadow="2"
   inkscape:window-width="1920"
   inkscape:window-height="1001"
   id="namedview21"
   showgrid="false"
   inkscape:zoom="1.3076568"
   inkscape:cx="-241.84032"
   inkscape:cy="-84.828325"
   inkscape:window-x="-9"
   inkscape:window-y="-9"
   inkscape:window-maximized="1"
   inkscape:current-layer="Layer_1" />
<g
   id="g18">
	<g
   id="g4">
		<path
   fill="#E63C1E"
   d="M0,0v237.143c0,0-2.165,34.18,27.305,59.956c7.345,6.433,18.991,13.616,32.354,20.778V0H0z"
   id="path2" />
	</g>
	<g
   id="g8">
		<path
   fill="#E63C1E"
   d="M116.721,344.874c22.095,9.515,39.188,16.077,39.188,16.077s17.306-6.648,39.604-16.262V102.696    C195.514,102.696,116.721,175.578,116.721,344.874z"
   id="path6" />
	</g>
	<g
   id="g12">
		<path
   fill="#E63C1E"
   d="M116.547,146.417c0,0,36.177-34.013,78.967-52.99V46.969V0h-39.604h-39.362v46.969V146.417z"
   id="path10" />
	</g>
	<g
   id="g16">
		<path
   fill="#E63C1E"
   d="M311.84,237.143V0h-59.665v317.888c13.379-7.168,25.052-14.356,32.4-20.789    C314.015,271.322,311.84,237.143,311.84,237.143z"
   id="path14" />
	</g>
</g>
<rect
   style="opacity:1;fill:url(#linearGradient881);fill-opacity:1;stroke:none;stroke-width:0.58743054;stroke-linecap:round;stroke-miterlimit:4;stroke-dasharray:none;stroke-opacity:1"
   id="rect855"
   width="143.50089"
   height="143.50089"
   x="-426.83347"
   y="105.41636"
   ry="16.78373"
   inkscape:export-filename="C:\Phonegap-md2214\PG-Admob-Adv-Panel\icon144.png"
   inkscape:export-xdpi="96"
   inkscape:export-ydpi="96" /><text
   xml:space="preserve"
   style="font-style:normal;font-variant:normal;font-weight:900;font-stretch:normal;font-size:72.53875732px;line-height:1.25;font-family:Arial;-inkscape-font-specification:'Arial Heavy';letter-spacing:0px;word-spacing:0px;fill:#000000;fill-opacity:1;stroke:none;stroke-width:1.81346893"
   x="-403.22052"
   y="207.09996"
   id="text859"
   inkscape:export-filename="C:\Phonegap-md2214\PG-Admob-Adv-Panel\icon144.png"
   inkscape:export-xdpi="96"
   inkscape:export-ydpi="96"><tspan
     sodipodi:role="line"
     id="tspan857"
     x="-403.22052"
     y="207.09996"
     style="font-style:normal;font-variant:normal;font-weight:900;font-stretch:normal;font-family:Arial;-inkscape-font-specification:'Arial Heavy';stroke-width:1.81346893">Ad</tspan></text>
<path
   inkscape:connector-curvature="0"
   style="opacity:0.2;fill:#000000;stroke:#000000;stroke-width:0.99999994px;stroke-linecap:butt;stroke-linejoin:miter;stroke-opacity:1"
   d="m -306.12001,156.05745 2.14454,52.85742 -97.8574,-3.57031 c 1.18688,0.89017 13.9197,20.78577 28.30469,43.57226 h 73.4121 c 9.29817,0 16.78318,-7.48502 16.78318,-16.7832 v -38.18946 z"
   id="path883"
   inkscape:export-filename="C:\Phonegap-md2214\PG-Admob-Adv-Panel\icon144.png"
   inkscape:export-xdpi="96"
   inkscape:export-ydpi="96" /><path
   sodipodi:type="star"
   style="opacity:1;fill:#ffffff;fill-opacity:1;stroke:none;stroke-width:3;stroke-miterlimit:4;stroke-dasharray:none;stroke-opacity:1"
   id="path873"
   sodipodi:sides="5"
   sodipodi:cx="-400.40491"
   sodipodi:cy="133.20127"
   sodipodi:r1="20.203051"
   sodipodi:r2="10.101525"
   sodipodi:arg1="0.78539816"
   sodipodi:arg2="1.4137167"
   inkscape:flatsided="false"
   inkscape:rounded="0"
   inkscape:randomized="0"
   d="m -386.11919,147.48698 -12.70549,-4.30856 -10.75222,8.02389 0.17147,-13.41505 -10.95379,-7.74645 12.81146,-3.9824 3.9824,-12.81146 7.74645,10.95379 13.41505,-0.17147 -8.02389,10.75222 z"
   inkscape:transform-center-x="0.25839813"
   inkscape:transform-center-y="-0.25840163"
   inkscape:export-filename="C:\Phonegap-md2214\PG-Admob-Adv-Panel\icon144.png"
   inkscape:export-xdpi="96"
   inkscape:export-ydpi="96" /><rect
   inkscape:export-ydpi="96"
   inkscape:export-xdpi="96"
   inkscape:export-filename="C:\Phonegap-md2214\PG-Hanchiang-App\icon144.png"
   ry="16.78373"
   y="412.83649"
   x="-426.83347"
   height="143.50089"
   width="143.50089"
   id="rect4557"
   style="opacity:1;fill:url(#linearGradient4567);fill-opacity:1;stroke:none;stroke-width:0.58743054;stroke-linecap:round;stroke-miterlimit:4;stroke-dasharray:none;stroke-opacity:1" /><text
   inkscape:export-ydpi="96"
   inkscape:export-xdpi="96"
   inkscape:export-filename="C:\Phonegap-md2214\PG-Admob-Adv-Panel\icon144.png"
   id="text4561"
   y="694.99561"
   x="-63.681877"
   style="font-style:normal;font-variant:normal;font-weight:900;font-stretch:normal;font-size:72.53875732px;line-height:1.25;font-family:Arial;-inkscape-font-specification:'Arial Heavy';letter-spacing:0px;word-spacing:0px;fill:#000000;fill-opacity:1;stroke:none;stroke-width:1.81346893"
   xml:space="preserve"><tspan
     style="font-style:normal;font-variant:normal;font-weight:900;font-stretch:normal;font-family:Arial;-inkscape-font-specification:'Arial Heavy';stroke-width:1.81346893"
     y="694.99561"
     x="-63.681877"
     id="tspan4559"
     sodipodi:role="line">Ad</tspan></text>
<path
   inkscape:export-ydpi="96"
   inkscape:export-xdpi="96"
   inkscape:export-filename="C:\Phonegap-md2214\PG-Admob-Adv-Panel\icon144.png"
   id="path4563"
   d="m 333.19149,590.4222 2.14454,52.85742 -97.8574,-3.57031 c 1.18688,0.89017 13.9197,20.78577 28.30469,43.57226 h 73.4121 c 9.29817,0 16.78318,-7.48502 16.78318,-16.7832 v -38.18946 z"
   style="opacity:0.2;fill:#000000;stroke:#000000;stroke-width:0.99999994px;stroke-linecap:butt;stroke-linejoin:miter;stroke-opacity:1"
   inkscape:connector-curvature="0" /><path
   style="fill:#000000;stroke:#000000;stroke-width:1px;stroke-linecap:butt;stroke-linejoin:miter;stroke-opacity:1;opacity:0.2"
   d="M -323.35742 450.83008 L -335.32812 514.60742 L -354.64258 523.24805 L -373.95312 514.60547 L -337.49414 556.33789 L -300.11719 556.33789 C -290.819 556.33789 -283.33203 548.85092 -283.33203 539.55273 L -283.33203 493.42578 L -323.35742 450.83008 z "
   id="path4587"
   inkscape:export-filename="C:\Phonegap-md2214\PG-Hanchiang-App\icon144.png"
   inkscape:export-xdpi="96"
   inkscape:export-ydpi="96" /><g
   id="g4585"
   transform="matrix(0.20063008,0,0,0.20063008,-385.92226,450.83006)"
   inkscape:export-filename="C:\Phonegap-md2214\PG-Hanchiang-App\icon144.png"
   inkscape:export-xdpi="96"
   inkscape:export-ydpi="96">
	<g
   id="g4571">
		<path
   id="path4569"
   d="m 0,0 v 237.143 c 0,0 -2.165,34.18 27.305,59.956 7.345,6.433 18.991,13.616 32.354,20.778 V 0 Z"
   inkscape:connector-curvature="0"
   style="fill:#e63c1e" />
	</g>
	<g
   id="g4575">
		<path
   id="path4573"
   d="m 116.721,344.874 c 22.095,9.515 39.188,16.077 39.188,16.077 0,0 17.306,-6.648 39.604,-16.262 V 102.696 c 0.001,0 -78.792,72.882 -78.792,242.178 z"
   inkscape:connector-curvature="0"
   style="fill:#e63c1e" />
	</g>
	<g
   id="g4579">
		<path
   id="path4577"
   d="m 116.547,146.417 c 0,0 36.177,-34.013 78.967,-52.99 V 46.969 0 H 155.91 116.548 v 46.969 99.448 z"
   inkscape:connector-curvature="0"
   style="fill:#e63c1e" />
	</g>
	<g
   id="g4583">
		<path
   id="path4581"
   d="M 311.84,237.143 V 0 h -59.665 v 317.888 c 13.379,-7.168 25.052,-14.356 32.4,-20.789 29.44,-25.777 27.265,-59.956 27.265,-59.956 z"
   inkscape:connector-curvature="0"
   style="fill:#e63c1e" />
	</g>
</g></svg>